<svg id="Layer_1" data-name="Layer 1" xmlns="http://www.w3.org/2000/svg" xmlns:xlink="http://www.w3.org/1999/xlink" viewBox="0 0 43.33 58.44"><defs><style>.cls-1,.cls-4{fill:none;}.cls-2{clip-path:url(#clip-path);}.cls-3{fill:url(#radial-gradient);}.cls-4,.cls-5{stroke:#009fe3;stroke-linecap:round;stroke-linejoin:round;stroke-width:2px;}.cls-5{fill:#fff;}</style><clipPath id="clip-path"><path id="SVGID" class="cls-1" d="M12.11,5.4H35.69a0,0,0,0,1,0,0v28a0,0,0,0,1,0,0h-28a0,0,0,0,1,0,0V9.87A4.46,4.46,0,0,1,12.11,5.4Z" transform="translate(20.08 -9.63) rotate(45)"/></clipPath><radialGradient id="radial-gradient" cx="21.67" cy="29.17" r="35.81" gradientUnits="userSpaceOnUse"><stop offset="0.2" stop-color="#009fe3" stop-opacity="0.34"/><stop offset="0.33" stop-color="#009fe3" stop-opacity="0.57"/><stop offset="0.55" stop-color="#009fe3"/></radialGradient></defs><g class="cls-2"><rect class="cls-3" x="-14.14" y="-6.64" width="71.62" height="71.62"/></g><path class="cls-4" d="M12.11,5.4H35.69a0,0,0,0,1,0,0v28a0,0,0,0,1,0,0h-28a0,0,0,0,1,0,0V9.87A4.46,4.46,0,0,1,12.11,5.4Z" transform="translate(20.08 -9.63) rotate(45)"/><path class="cls-5" d="M34.84,34.58l-9.77-9.76a5,5,0,0,0-7,0l-5.71,5.71a1,1,0,0,0,0,1.43l.81,2.62,3.4,6s4.34,3.29,5.15,3.29S34.84,34.58,34.84,34.58Z"/><path class="cls-5" d="M41.58,39.25V19.42L11.8,49.13l6.52,6.52a4.84,4.84,0,0,0,6.86,0Z"/><path class="cls-5" d="M1.84,38.84V19.42l29.06,29a1,1,0,0,1,0,1.43l-5.71,5.71a5,5,0,0,1-7,0l-16-16A1,1,0,0,1,1.84,38.84Z"/></svg>