<svg id="blue" xmlns="http://www.w3.org/2000/svg" xmlns:xlink="http://www.w3.org/1999/xlink" viewBox="0 0 604 604"><defs><style>.cls-1{fill:url(#New_Gradient_Swatch_11);}.cls-2{fill:url(#New_Gradient_Swatch_11-2);}</style><linearGradient id="New_Gradient_Swatch_11" x1="201.56" y1="201.51" x2="402.53" y2="402.49" gradientUnits="userSpaceOnUse"><stop offset="0" stop-color="#42a5f5"/><stop offset="1" stop-color="#0d47a1"/></linearGradient><linearGradient id="New_Gradient_Swatch_11-2" x1="16.64" y1="16.64" x2="587.36" y2="587.36" xlink:href="#New_Gradient_Swatch_11"/></defs><title>blue</title><path class="cls-1" d="M159.93,302A142.11,142.11,0,1,0,302,159.89,142.11,142.11,0,0,0,159.93,302Z"/><path class="cls-2" d="M322,2H52A50,50,0,0,0,2,52V322C2,476.64,127.36,602,282,602H552a50,50,0,0,0,50-50V282C602,127.36,476.64,2,322,2ZM38.83,82.25a43.46,43.46,0,1,1,43.46,43.46A43.46,43.46,0,0,1,38.83,82.25ZM302,525.49C178.61,525.49,78.56,425.43,78.56,302S178.61,78.51,302,78.51,525.53,178.57,525.53,302,425.47,525.49,302,525.49ZM519.78,563.2a43.46,43.46,0,1,1,43.46-43.46A43.46,43.46,0,0,1,519.78,563.2Z"/></svg>