<svg id="blue" xmlns="http://www.w3.org/2000/svg" xmlns:xlink="http://www.w3.org/1999/xlink" viewBox="0 0 900 226"><defs><style>.cls-1{fill:url(#linear-gradient);}.cls-2{fill:url(#linear-gradient-2);}.cls-3{fill:#0277bd;}</style><linearGradient id="linear-gradient" x1="79.19" y1="346.84" x2="146.87" y2="279.17" gradientTransform="matrix(1, 0, 0, -1, 0, 428)" gradientUnits="userSpaceOnUse"><stop offset="0" stop-color="#42a5f5"/><stop offset="1" stop-color="#0d47a1"/></linearGradient><linearGradient id="linear-gradient-2" x1="16.93" y1="409.09" x2="209.11" y2="216.92" xlink:href="#linear-gradient"/></defs><title>Artboard 1</title><path class="cls-1" d="M65.18,115A47.85,47.85,0,1,0,113,67.14,47.85,47.85,0,0,0,65.18,115Z"/><path class="cls-2" d="M119.75,14H28.84A16.84,16.84,0,0,0,12,30.81v90.92A94.29,94.29,0,0,0,106.29,216H197.2A16.84,16.84,0,0,0,214,199.18V108.26A94.29,94.29,0,0,0,119.75,14ZM24.4,41A14.63,14.63,0,1,1,39,55.63,14.63,14.63,0,0,1,24.4,41ZM113,190.25A75.25,75.25,0,1,1,188.29,115,75.26,75.26,0,0,1,113,190.25Zm73.32,12.7A14.63,14.63,0,1,1,201,188.31a14.63,14.63,0,0,1-14.63,14.63h0Z"/><g id="Layer_21" data-name="Layer 21"><path class="cls-3" d="M282,49.9h79.67v11H294.16v46.36h63.29v11H294.16v50.78h70.47v11H282Z"/><path class="cls-3" d="M394.62,156.07c6.44,10.86,16.93,16.37,29.81,16.37,16.37,0,29.25-9.93,29.25-25.57,0-36.43-67.16-15.08-67.16-64.58,0-23.19,19.88-35.72,41.76-35.72,14.17,0,26.68,4.78,35.52,16.37l-10.46,7.55C447.24,62,439.17,57.6,427.95,57.6c-15.64,0-29.26,8.09-29.26,24.66,0,39.21,67.16,15.64,67.16,64.58,0,23.53-19.32,36.6-40.48,36.6-17.11,0-32.24-5.52-42.32-19.69Z"/><path class="cls-3" d="M493.42,49.9H531c18.4,0,42,7.18,42,34.41,0,23.53-18.77,34-39.21,34H505.57v61.86H493.42Zm12.15,57.4h27.6c13.8,0,27.6-5.89,27.6-23,0-16.75-14.35-23.37-28.34-23.37H505.57Z"/><path class="cls-3" d="M599,49.9H678.7v11H611.17v46.36h63.29v11H611.18v50.78h70.47v11H599Z"/><path class="cls-3" d="M708.1,49.9h34.23c10.31,0,46.36,0,46.36,34.23,0,24.84-19,31.65-33.3,33.49l37.9,62.56H779.55L743,118.31H720.3v61.86H708.1Zm12.2,57.4h25.76c25.57,0,30.54-14.17,30.54-23.19s-5-23.19-30.54-23.19H720.3Z"/><path class="cls-3" d="M820.74,156.07c6.44,10.86,16.93,16.37,29.81,16.37,16.37,0,29.26-9.93,29.26-25.57,0-36.43-67.16-15.08-67.16-64.58,0-23.19,19.87-35.72,41.76-35.72,14.17,0,26.68,4.78,35.52,16.37l-10.46,7.55C873.37,62,865.3,57.6,854.08,57.6c-15.64,0-29.26,8.09-29.26,24.66,0,39.21,67.16,15.64,67.16,64.58,0,23.53-19.32,36.6-40.48,36.6-17.11,0-32.24-5.52-42.32-19.69Z"/></g></svg>